<?xml version="1.0" encoding="iso-8859-1"?>
<!-- Generator: Adobe Illustrator 16.0.0, SVG Export Plug-In . SVG Version: 6.00 Build 0)  -->
<!DOCTYPE svg PUBLIC "-//W3C//DTD SVG 1.1//EN" "http://www.w3.org/Graphics/SVG/1.1/DTD/svg11.dtd">
<svg version="1.1" id="Capa_1" xmlns="http://www.w3.org/2000/svg" xmlns:xlink="http://www.w3.org/1999/xlink" x="0px" y="0px"
	 width="602.936px" height="602.936px" viewBox="0 0 602.936 602.936" style="enable-background:new 0 0 602.936 602.936;"
	 xml:space="preserve">
<g>
	<g>
		<path d="M545.244,142.155c7.303-13.706,8.831-29.435,4.305-44.291l-17.119-56.17c-3.705-12.157-11.085-22.536-21.344-30.019
			C501.061,4.365,489.214,0.5,476.824,0.5l0,0c-0.001,0-0.001,0-0.002,0c-5.746,0-11.449,0.851-16.956,2.529L69.217,122.082
			c-14.855,4.527-27.059,14.568-34.361,28.274c-7.303,13.706-8.832,29.435-4.304,44.291l17.118,56.17
			c2.986,9.798,8.364,18.439,15.709,25.343c-8.189,10.021-13.109,22.812-13.109,36.733v231.404c0,32.058,26.082,58.14,58.14,58.14
			h408.388c32.059,0,58.14-26.082,58.14-58.14V312.892c0-32.058-26.081-58.14-58.14-58.14H234.195l276.689-84.322
			C525.737,165.902,537.94,155.861,545.244,142.155z M516.797,297.592c8.449,0,15.3,6.85,15.3,15.3v231.404
			c0,8.449-6.851,15.3-15.3,15.3H108.408c-8.45,0-15.3-6.851-15.3-15.3V312.892c0-8.45,6.85-15.3,15.3-15.3H516.797z
			 M498.394,129.45l-390.65,119.052c-1.486,0.453-2.989,0.668-4.465,0.668c-6.556,0-12.62-4.247-14.63-10.844l-17.118-56.17
			c-2.463-8.083,2.092-16.632,10.175-19.096L472.355,44.008c1.485-0.453,2.988-0.668,4.465-0.668c6.557,0,12.62,4.247,14.631,10.844
			l17.118,56.17C511.032,118.438,506.477,126.987,498.394,129.45z"/>
		<path d="M516.798,602.936H108.41c-32.334,0-58.64-26.306-58.64-58.64V312.892c0-13.304,4.588-26.313,12.93-36.688
			c-7.215-6.892-12.572-15.609-15.508-25.241l-17.118-56.17c-4.566-14.983-3.025-30.848,4.341-44.672
			c7.366-13.823,19.674-23.951,34.657-28.517L459.721,2.551C465.275,0.858,471.028,0,476.822,0c12.496,0,24.446,3.898,34.559,11.272
			c10.347,7.547,17.79,18.017,21.527,30.277l17.119,56.17c4.565,14.984,3.023,30.848-4.342,44.671
			c-7.366,13.823-19.674,23.951-34.656,28.517l-273.479,83.344h279.247c32.334,0,58.64,26.306,58.64,58.64v231.404
			C575.438,576.63,549.132,602.936,516.798,602.936z M476.824,1c-5.696,0-11.353,0.844-16.812,2.508L69.363,122.56
			c-14.728,4.488-26.826,14.443-34.066,28.031c-7.241,13.587-8.756,29.182-4.267,43.909l17.118,56.17
			c2.93,9.615,8.315,18.302,15.573,25.125l0.34,0.319l-0.295,0.361c-8.381,10.255-12.997,23.188-12.997,36.417v231.404
			c0,31.782,25.857,57.64,57.64,57.64h408.388c31.782,0,57.64-25.857,57.64-57.64V312.892c0-31.783-25.857-57.64-57.64-57.64
			H230.839l279.899-85.301c14.726-4.488,26.824-14.443,34.064-28.031c7.239-13.587,8.755-29.181,4.268-43.91l-17.119-56.169
			c-3.673-12.052-10.99-22.343-21.16-29.761C500.852,4.832,489.106,1,476.824,1z M516.797,560.096H108.408
			c-8.712,0-15.8-7.088-15.8-15.8V312.892c0-8.712,7.088-15.8,15.8-15.8h408.389c8.712,0,15.8,7.088,15.8,15.8v231.404
			C532.597,553.008,525.509,560.096,516.797,560.096z M108.408,298.092c-8.161,0-14.8,6.639-14.8,14.8v231.404
			c0,8.16,6.639,14.8,14.8,14.8h408.389c8.161,0,14.8-6.64,14.8-14.8V312.892c0-8.161-6.639-14.8-14.8-14.8H108.408z
			 M103.278,249.671c-6.996,0-13.067-4.5-15.109-11.198l-17.118-56.17c-1.23-4.037-0.815-8.312,1.17-12.036
			c1.984-3.725,5.301-6.454,9.338-7.684L472.21,43.53c1.503-0.458,3.054-0.69,4.61-0.69c6.996,0,13.067,4.5,15.109,11.198
			l17.118,56.17c2.539,8.334-2.175,17.18-10.509,19.72l-390.65,119.053C106.387,249.438,104.835,249.671,103.278,249.671z
			 M476.82,43.84c-1.458,0-2.911,0.218-4.319,0.647L81.851,163.539c-3.782,1.152-6.888,3.708-8.748,7.197
			c-1.859,3.489-2.248,7.493-1.095,11.274l17.118,56.171c1.912,6.274,7.599,10.49,14.152,10.49c1.459,0,2.912-0.218,4.319-0.646
			l390.651-119.053c7.806-2.379,12.222-10.665,9.843-18.472l-17.118-56.17C489.061,48.055,483.373,43.839,476.82,43.84z"/>
	</g>
	<g>
		<path d="M190.434,405.185h244.338c11.83,0,21.42-9.59,21.42-21.42s-9.59-21.42-21.42-21.42H190.434
			c-11.83,0-21.42,9.59-21.42,21.42S178.604,405.185,190.434,405.185z"/>
		<path d="M434.771,405.685H190.434c-12.087,0-21.92-9.833-21.92-21.92s9.833-21.92,21.92-21.92h244.338
			c12.087,0,21.92,9.833,21.92,21.92S446.858,405.685,434.771,405.685z M190.434,362.845c-11.535,0-20.92,9.385-20.92,20.92
			s9.385,20.92,20.92,20.92h244.338c11.535,0,20.92-9.385,20.92-20.92s-9.385-20.92-20.92-20.92H190.434z"/>
	</g>
	<g>
		<path d="M190.434,494.843h244.338c11.83,0,21.42-9.59,21.42-21.42s-9.59-21.42-21.42-21.42H190.434
			c-11.83,0-21.42,9.59-21.42,21.42S178.604,494.843,190.434,494.843z"/>
		<path d="M434.771,495.343H190.434c-12.087,0-21.92-9.833-21.92-21.92s9.833-21.92,21.92-21.92h244.338
			c12.087,0,21.92,9.833,21.92,21.92S446.858,495.343,434.771,495.343z M190.434,452.503c-11.535,0-20.92,9.385-20.92,20.92
			s9.385,20.92,20.92,20.92h244.338c11.535,0,20.92-9.385,20.92-20.92s-9.385-20.92-20.92-20.92H190.434z"/>
	</g>
</g>
<g>
</g>
<g>
</g>
<g>
</g>
<g>
</g>
<g>
</g>
<g>
</g>
<g>
</g>
<g>
</g>
<g>
</g>
<g>
</g>
<g>
</g>
<g>
</g>
<g>
</g>
<g>
</g>
<g>
</g>
</svg>
