<?xml version="1.0" encoding="iso-8859-1"?>
<svg version="1.1" id="Layer_1" xmlns="http://www.w3.org/2000/svg" xmlns:xlink="http://www.w3.org/1999/xlink" x="0px" y="0px"
	 viewBox="0 0 504 504" style="enable-background:new 0 0 504 504;" xml:space="preserve">
<g>
	<g>
		<rect x="232.16" y="300.64" width="271.84" height="16"/>
	</g>
</g>
<g>
	<g>
		<rect x="232.16" y="366.72" width="271.84" height="16"/>
	</g>
</g>
<g>
	<g>
		<rect x="232.16" y="432.992" width="271.84" height="16"/>
	</g>
</g>
<g>
	<g>
		<rect x="232.16" y="55.008" width="271.84" height="16"/>
	</g>
</g>
<g>
	<g>
		<rect x="232.16" y="121.232" width="271.84" height="16"/>
	</g>
</g>
<g>
	<g>
		<rect x="232.16" y="187.44" width="271.84" height="16"/>
	</g>
</g>
<g>
	<g>
		<path d="M78.576,294.704C35.184,294.704,0,330.56,0,374.784c0,44.224,35.184,80.08,78.576,80.08
			c43.392,0,78.576-35.856,78.576-80.08C157.152,330.56,121.968,294.704,78.576,294.704z M78.576,438.848
			C44.064,438.848,16,410.112,16,374.784c0-35.344,28.064-64.096,62.576-64.096c34.496,0,62.576,28.752,62.576,64.08
			S113.088,438.848,78.576,438.848z"/>
	</g>
</g>
<g>
	<g>
		<path d="M78.576,49.136C35.184,49.136,0,84.992,0,129.216s35.184,80.08,78.576,80.08c43.392,0,78.576-35.856,78.576-80.08
			S121.968,49.136,78.576,49.136z M78.576,193.296C44.064,193.296,16,164.56,16,129.216c0-35.328,28.064-64.08,62.576-64.08
			c34.496,0,62.576,28.752,62.576,64.08S113.088,193.296,78.576,193.296z"/>
	</g>
</g>
</svg>
