<?xml version="1.0" encoding="iso-8859-1"?>
<!-- Generator: Adobe Illustrator 19.0.0, SVG Export Plug-In . SVG Version: 6.00 Build 0)  -->
<svg version="1.1" id="Layer_1" xmlns="http://www.w3.org/2000/svg" xmlns:xlink="http://www.w3.org/1999/xlink" x="0px" y="0px"
	 viewBox="0 0 512 512" style="enable-background:new 0 0 512 512;" xml:space="preserve">
<g>
	<g>
		<rect x="82.992" y="111.952" width="183.12" height="16"/>
	</g>
</g>
<g>
	<g>
		<rect x="1.6" y="178.08" width="264.512" height="16"/>
	</g>
</g>
<g>
	<g>
		<rect x="81.392" y="317.92" width="183.12" height="16"/>
	</g>
</g>
<g>
	<g>
		<rect y="384" width="264.512" height="16"/>
	</g>
</g>
<g>
	<g>
		<path d="M335.664,281.84v154.288H512V281.84H335.664z M496,420.112H351.664V297.824H496V420.112z"/>
	</g>
</g>
<g>
	<g>
		<path d="M461.792,316l-55.152,61.248l-21.024-21.024l-11.312,11.312l27.008,27.008c1.504,1.504,3.536,2.336,5.664,2.336
			c0.064,0,0.144,0,0.208,0c2.208-0.064,4.288-1.008,5.744-2.64l60.768-67.52L461.792,316z"/>
	</g>
</g>
<g>
	<g>
		<path d="M335.664,75.872V230.16H512V75.872H335.664z M496,214.176H351.664V91.872H496V214.176z"/>
	</g>
</g>
<g>
	<g>
		<path d="M461.776,110.048l-55.12,61.248l-21.024-21.024l-11.312,11.312l27.008,27.008c1.472,1.488,3.504,2.336,5.632,2.336
			c0.064,0,0.144,0,0.208,0c2.208-0.064,4.288-1.008,5.744-2.64l60.768-67.52L461.776,110.048z"/>
	</g>
</g>
<g>
</g>
<g>
</g>
<g>
</g>
<g>
</g>
<g>
</g>
<g>
</g>
<g>
</g>
<g>
</g>
<g>
</g>
<g>
</g>
<g>
</g>
<g>
</g>
<g>
</g>
<g>
</g>
<g>
</g>
</svg>
