<?xml version="1.0" encoding="iso-8859-1"?>
<!-- Generator: Adobe Illustrator 19.0.0, SVG Export Plug-In . SVG Version: 6.00 Build 0)  -->
<svg version="1.1" id="Layer_1" xmlns="http://www.w3.org/2000/svg" xmlns:xlink="http://www.w3.org/1999/xlink" x="0px" y="0px"
	 viewBox="0 0 329.937 329.937" style="enable-background:new 0 0 329.937 329.937;" xml:space="preserve">
<path id="XMLID_6_" d="M317.86,60.862l-86.666-17.238c-8.124-1.612-16.021,3.661-17.638,11.785l-17.24,86.668
	c-1.616,8.125,3.66,16.023,11.785,17.639c0.988,0.196,1.973,0.291,2.943,0.291c7.01,0,13.276-4.939,14.696-12.076l10.711-53.851
	c22.66,41.719,16.365,95.225-18.79,130.38c-21.441,21.44-49.596,32.159-77.76,32.157c-28.157-0.003-56.323-10.722-77.759-32.157
	c-42.876-42.876-42.876-112.642,0-155.518c5.858-5.857,5.858-15.355,0-21.213c-5.857-5.857-15.355-5.857-21.213,0
	c-54.573,54.573-54.573,143.37,0,197.943c27.29,27.29,63.125,40.934,98.972,40.93c35.838-0.003,71.689-13.647,98.973-40.93
	c26.317-26.317,40.876-61.307,40.995-98.523c0.076-23.59-5.662-46.318-16.525-66.544l48.664,9.68
	c8.127,1.613,16.022-3.66,17.638-11.786C331.262,70.375,325.985,62.479,317.86,60.862z"/>
<g>
</g>
<g>
</g>
<g>
</g>
<g>
</g>
<g>
</g>
<g>
</g>
<g>
</g>
<g>
</g>
<g>
</g>
<g>
</g>
<g>
</g>
<g>
</g>
<g>
</g>
<g>
</g>
<g>
</g>
</svg>
